<svg xmlns="http://www.w3.org/2000/svg" width="58.008" height="50.149" viewBox="0 0 58.008 50.149">
  <g id="heart" transform="translate(1.5 1.5)">
    <path id="Path_7" data-name="Path 7" d="M27.5,47.149a1.837,1.837,0,0,1-1.351-.553L7,28.118a10.132,10.132,0,0,1-.844-.8q-.537-.553-1.7-2.011a27.164,27.164,0,0,1-2.087-2.993A18.591,18.591,0,0,1,.721,18.6,13.446,13.446,0,0,1,0,14.366Q0,7.613,3.9,3.806T14.673,0a12.235,12.235,0,0,1,3.883.66,15.716,15.716,0,0,1,3.684,1.78q1.7,1.12,2.931,2.1A28.282,28.282,0,0,1,27.5,6.63a28.282,28.282,0,0,1,2.333-2.087q1.228-.982,2.931-2.1A15.716,15.716,0,0,1,36.452.66,12.235,12.235,0,0,1,40.335,0q6.876,0,10.774,3.806t3.9,10.56q0,6.784-7.029,13.813L28.854,46.6A1.837,1.837,0,0,1,27.5,47.149Z" fill="none" stroke="#221f20" stroke-width="3"/>
  </g>
</svg>
