<svg xmlns="http://www.w3.org/2000/svg" width="44.425" height="2959.544" viewBox="0 0 44.425 2959.544">
  <g id="Group_198" data-name="Group 198" transform="translate(-20 -262)">
    <g id="Group_197" data-name="Group 197" transform="translate(20 262)">
      <g id="Group_190" data-name="Group 190" transform="translate(0 0)">
        <path id="Path_2083" data-name="Path 2083" d="M53.269,31.923A21.926,21.926,0,1,1,31.344,10,21.925,21.925,0,0,1,53.269,31.923" transform="translate(-9.418 -9.997)" fill="#f4efed"/>
      </g>
    </g>
    <path id="Path_2083-2" data-name="Path 2083" d="M53.269,31.923A21.926,21.926,0,1,1,31.344,10,21.925,21.925,0,0,1,53.269,31.923" transform="translate(10.781 980.982)" fill="#f4efed"/>
    <path id="Path_2084" data-name="Path 2084" d="M53.269,31.923A21.926,21.926,0,1,1,31.344,10,21.925,21.925,0,0,1,53.269,31.923" transform="translate(11.156 1709.886)" fill="#f4efed"/>
    <path id="Path_2085" data-name="Path 2085" d="M53.269,31.923A21.926,21.926,0,1,1,31.344,10,21.925,21.925,0,0,1,53.269,31.923" transform="translate(10.781 2438.791)" fill="#f4efed"/>
    <path id="Path_2086" data-name="Path 2086" d="M53.269,31.923A21.926,21.926,0,1,1,31.344,10,21.925,21.925,0,0,1,53.269,31.923" transform="translate(10.781 3167.696)" fill="#f4efed"/>
    <text id="_2" data-name="2" transform="translate(33.625 999.905)" fill="#221f20" font-size="20" font-family="PPAgrandir-GrandHeavy, PP Agrandir" font-weight="800"><tspan x="0" y="20">2</tspan></text>
    <text id="_3" data-name="3" transform="translate(34 1728.809)" fill="#221f20" font-size="20" font-family="PPAgrandir-GrandHeavy, PP Agrandir" font-weight="800"><tspan x="0" y="20">3</tspan></text>
    <text id="_4" data-name="4" transform="translate(33.625 2457.714)" fill="#221f20" font-size="20" font-family="PPAgrandir-GrandHeavy, PP Agrandir" font-weight="800"><tspan x="0" y="20">4</tspan></text>
    <text id="_5" data-name="5" transform="translate(33.625 3186.618)" fill="#221f20" font-size="20" font-family="PPAgrandir-GrandHeavy, PP Agrandir" font-weight="800"><tspan x="0" y="20">5</tspan></text>
    <line id="Line_37" data-name="Line 37" y2="652.979" transform="translate(42.5 321.5)" fill="none" stroke="#000" stroke-width="2.5"/>
    <line id="Line_40" data-name="Line 40" y2="652.979" transform="translate(42.875 1050.405)" fill="none" stroke="#000" stroke-width="2.5"/>
    <line id="Line_41" data-name="Line 41" y2="652.979" transform="translate(42.5 1779.309)" fill="none" stroke="#000" stroke-width="2.5"/>
    <line id="Line_42" data-name="Line 42" y2="652.979" transform="translate(42.5 2508.214)" fill="none" stroke="#000" stroke-width="2.5"/>
    <text id="_1" data-name="1" transform="translate(34 271)" fill="#221f20" font-size="20" font-family="PPAgrandir-GrandHeavy, PP Agrandir" font-weight="800"><tspan x="0" y="20">1</tspan></text>
  </g>
</svg>
